<?xml version="1.0" standalone="no"?>
<!DOCTYPE svg PUBLIC "-//W3C//DTD SVG 20010904//EN"
 "http://www.w3.org/TR/2001/REC-SVG-20010904/DTD/svg10.dtd">
<svg version="1.0" xmlns="http://www.w3.org/2000/svg"
 width="75.000000pt" height="75.000000pt" viewBox="0 0 500.000000 500.000000"
 preserveAspectRatio="xMidYMid meet">

<g transform="translate(0.000000,500.000000) scale(0.100000,-0.100000)"
fill="#1a1a1a" stroke="none">
<path d="M2285 4368 c-71 -139 -155 -305 -188 -368 -159 -304 -192 -368 -284
-550 -54 -107 -101 -196 -105 -198 -5 -2 -8 -8 -8 -14 0 -10 -240 -490 -427
-856 l-68 -133 -3 830 -2 831 -420 0 -420 0 0 -1655 0 -1655 425 0 425 0 0 34
c0 31 148 336 313 646 l35 65 692 3 691 2 -7 23 c-4 12 -10 24 -13 27 -4 3
-15 31 -25 62 -10 32 -21 60 -25 63 -4 2 -16 32 -26 67 -11 35 -22 65 -26 68
-3 3 -14 30 -24 60 -10 30 -23 66 -31 80 -7 14 -21 48 -30 75 -10 28 -21 52
-24 55 -3 3 -14 32 -24 65 -11 33 -22 65 -27 70 -4 6 -16 35 -26 65 l-19 55
-312 3 c-172 1 -312 5 -312 9 0 3 29 60 64 127 35 67 130 253 212 414 82 160
151 292 154 292 3 0 26 -42 51 -92 25 -51 132 -264 238 -473 418 -821 559
-1097 701 -1370 37 -71 109 -212 160 -312 l92 -183 404 0 c222 0 404 2 404 5
0 2 -24 51 -53 107 -30 57 -130 252 -222 433 -92 182 -172 335 -177 342 -15
19 -8 27 78 90 176 131 302 276 394 454 100 195 143 371 143 594 1 134 -5 180
-40 325 -50 210 -168 413 -347 594 -172 174 -365 280 -626 343 -51 12 -146 17
-447 20 -275 3 -384 8 -391 16 -5 7 -88 166 -183 354 -96 189 -177 343 -180
343 -4 0 -64 -114 -134 -252z m1220 -1339 c133 -48 224 -144 266 -281 24 -81
24 -164 -1 -249 -30 -100 -133 -232 -160 -202 -17 19 -381 744 -377 751 3 4
52 6 109 5 76 -2 119 -8 163 -24z"/>
</g>
</svg>
